<svg xmlns="http://www.w3.org/2000/svg" viewBox="0 0 42 42"><defs><style>.cls-1{fill:#595959;}</style></defs><title>search</title><g id="Layer_2" data-name="Layer 2"><g id="search"><path class="cls-1" d="M41.062,36.938a2.84,2.84,0,0,1,0,4.218A2.8,2.8,0,0,1,39,42a3.126,3.126,0,0,1-2.157-.844L25.875,30.094A16.157,16.157,0,0,1,16.5,33,16.374,16.374,0,0,1,4.875,28.219a16.972,16.972,0,0,1-3.563-5.25A15.959,15.959,0,0,1,0,16.5a15.734,15.734,0,0,1,1.312-6.375,16.874,16.874,0,0,1,8.813-8.813,16.144,16.144,0,0,1,12.75,0,16.867,16.867,0,0,1,8.812,8.813A15.735,15.735,0,0,1,33,16.5a15.364,15.364,0,0,1-.8,4.969,20.419,20.419,0,0,1-2.11,4.406ZM16.5,30a13.3,13.3,0,0,0,9.515-3.891A13.761,13.761,0,0,0,28.921,21.8,13.171,13.171,0,0,0,30,16.5a12.848,12.848,0,0,0-1.079-5.25A13.856,13.856,0,0,0,21.75,4.078,12.848,12.848,0,0,0,16.5,3a13.17,13.17,0,0,0-5.3,1.078A13.807,13.807,0,0,0,6.891,6.984,13.3,13.3,0,0,0,3,16.5a13.664,13.664,0,0,0,1.031,5.3A13.038,13.038,0,0,0,11.2,28.969,13.664,13.664,0,0,0,16.5,30Z"/></g></g></svg>